<?xml version="1.0" encoding="UTF-8"?><svg xmlns="http://www.w3.org/2000/svg" xmlns:xlink="http://www.w3.org/1999/xlink" contentScriptType="application/ecmascript" contentStyleType="text/css" height="221px" preserveAspectRatio="none" style="width:2223px;height:221px;" version="1.1" viewBox="0 0 2223 221" width="2223px" zoomAndPan="magnify">
    <defs>
        <filter height="300%" id="f192rpiha5fi3v" width="300%" x="-1" y="-1">
            <feGaussianBlur result="blurOut" stdDeviation="2.0"/>
            <feColorMatrix in="blurOut" result="blurOut2" type="matrix" values="0 0 0 0 0 0 0 0 0 0 0 0 0 0 0 0 0 0 .4 0"/>
            <feOffset dx="4.0" dy="4.0" in="blurOut2" result="blurOut3"/>
            <feBlend in="SourceGraphic" in2="blurOut3" mode="normal"/>
        </filter>
    </defs>
    <g>
        <!--MD5=[7904f3d7016f92be79c2cc3d0617cc2b]
cluster com.mysql.jdbc.jdbc2.optional-->
        <polygon fill="#FFFFFF" filter="url(#f192rpiha5fi3v)" points="196,114,412,114,419,137.6094,422,137.6094,422,214,196,214,196,114" style="stroke:#000000;stroke-width:1.5;"/>
        <line style="stroke:#000000;stroke-width:1.5;" x1="196" x2="419" y1="137.6094" y2="137.6094"/>
        <text fill="#000000" font-family="sans-serif" font-size="14" font-weight="bold" lengthAdjust="spacing" textLength="210" x="200" y="130.5332">com.mysql.jdbc.jdbc2.optional</text>
        <!--MD5=[d63c23c2d4b14118d71bd46d55a646bd]
cluster java.awt.event-->
        <polygon fill="#FFFFFF" filter="url(#f192rpiha5fi3v)" points="446,114,554,114,561,137.6094,574,137.6094,574,214,446,214,446,114" style="stroke:#000000;stroke-width:1.5;"/>
        <line style="stroke:#000000;stroke-width:1.5;" x1="446" x2="561" y1="137.6094" y2="137.6094"/>
        <text fill="#000000" font-family="sans-serif" font-size="14" font-weight="bold" lengthAdjust="spacing" textLength="102" x="450" y="130.5332">java.awt.event</text>
        <!--MD5=[0d852700fdad35b7061d461d6907a324]
cluster java.io-->
        <polygon fill="#FFFFFF" filter="url(#f192rpiha5fi3v)" points="598,114,650,114,657,137.6094,1164,137.6094,1164,214,598,214,598,114" style="stroke:#000000;stroke-width:1.5;"/>
        <line style="stroke:#000000;stroke-width:1.5;" x1="598" x2="657" y1="137.6094" y2="137.6094"/>
        <text fill="#000000" font-family="sans-serif" font-size="14" font-weight="bold" lengthAdjust="spacing" textLength="46" x="602" y="130.5332">java.io</text>
        <!--MD5=[3259daacbd0579bd424696ce0a57bc85]
cluster java.nio.charset-->
        <polygon fill="#FFFFFF" filter="url(#f192rpiha5fi3v)" points="1188,114,1306,114,1313,137.6094,1354,137.6094,1354,214,1188,214,1188,114" style="stroke:#000000;stroke-width:1.5;"/>
        <line style="stroke:#000000;stroke-width:1.5;" x1="1188" x2="1313" y1="137.6094" y2="137.6094"/>
        <text fill="#000000" font-family="sans-serif" font-size="14" font-weight="bold" lengthAdjust="spacing" textLength="112" x="1192" y="130.5332">java.nio.charset</text>
        <!--MD5=[c4061de2b4ca09897990802c4ef9a5be]
cluster java.sql-->
        <polygon fill="#FFFFFF" filter="url(#f192rpiha5fi3v)" points="1378,114,1438,114,1445,137.6094,1946,137.6094,1946,214,1378,214,1378,114" style="stroke:#000000;stroke-width:1.5;"/>
        <line style="stroke:#000000;stroke-width:1.5;" x1="1378" x2="1445" y1="137.6094" y2="137.6094"/>
        <text fill="#000000" font-family="sans-serif" font-size="14" font-weight="bold" lengthAdjust="spacing" textLength="54" x="1382" y="130.5332">java.sql</text>
        <!--MD5=[7db3c59d38ae5b37b484eb2df9368145]
cluster java.util-->
        <polygon fill="#FFFFFF" filter="url(#f192rpiha5fi3v)" points="1970,114,2031,114,2038,137.6094,2206,137.6094,2206,214,1970,214,1970,114" style="stroke:#000000;stroke-width:1.5;"/>
        <line style="stroke:#000000;stroke-width:1.5;" x1="1970" x2="2038" y1="137.6094" y2="137.6094"/>
        <text fill="#000000" font-family="sans-serif" font-size="14" font-weight="bold" lengthAdjust="spacing" textLength="55" x="1974" y="130.5332">java.util</text>
        <!--MD5=[bb233391162344cee67faf7088269389]
cluster moviesearchapp-->
        <polygon fill="#FFFFFF" filter="url(#f192rpiha5fi3v)" points="16,6,139,6,146,29.6094,172,29.6094,172,214,16,214,16,6" style="stroke:#000000;stroke-width:1.5;"/>
        <line style="stroke:#000000;stroke-width:1.5;" x1="16" x2="146" y1="29.6094" y2="29.6094"/>
        <text fill="#000000" font-family="sans-serif" font-size="14" font-weight="bold" lengthAdjust="spacing" textLength="117" x="20" y="22.5332">moviesearchapp</text>
        <!--MD5=[01ae94b460c8eb2d73bf8de8524babe3]
class com.mysql.jdbc.jdbc2.optional.MysqlDataSource-->
        <rect codeLine="1" fill="#FEFECE" filter="url(#f192rpiha5fi3v)" height="48" id="com.mysql.jdbc.jdbc2.optional.MysqlDataSource" style="stroke:#A80036;stroke-width:1.5;" width="128" x="212" y="150"/>
        <ellipse cx="227" cy="166" fill="#ADD1B2" rx="11" ry="11" style="stroke:#A80036;stroke-width:1.0;"/>
        <path d="M229.7656,161.875 Q229.9219,161.6563 230.1094,161.5469 Q230.2969,161.4375 230.5156,161.4375 Q230.8906,161.4375 231.125,161.7031 Q231.3594,161.9531 231.3594,162.5625 L231.3594,164.0156 Q231.3594,164.625 231.125,164.8906 Q230.8906,165.1563 230.5156,165.1563 Q230.1719,165.1563 229.9688,164.9531 Q229.7656,164.7656 229.6563,164.25 Q229.6094,163.8906 229.4219,163.7031 Q229.0938,163.3281 228.4844,163.1094 Q227.875,162.8906 227.25,162.8906 Q226.4844,162.8906 225.8438,163.2188 Q225.2188,163.5469 224.7188,164.2969 Q224.2344,165.0469 224.2344,166.0781 L224.2344,167.1719 Q224.2344,168.4063 225.125,169.2344 Q226.0156,170.0469 227.6094,170.0469 Q228.5469,170.0469 229.2031,169.7969 Q229.5938,169.6406 230.0156,169.2031 Q230.2813,168.9375 230.4219,168.8594 Q230.5781,168.7813 230.7813,168.7813 Q231.1094,168.7813 231.3594,169.0469 Q231.625,169.2969 231.625,169.6406 Q231.625,169.9844 231.2813,170.3906 Q230.7813,170.9688 229.9844,171.2969 Q228.9063,171.75 227.6094,171.75 Q226.0938,171.75 224.8906,171.125 Q223.9063,170.625 223.2188,169.5625 Q222.5313,168.4844 222.5313,167.2031 L222.5313,166.0469 Q222.5313,164.7188 223.1406,163.5781 Q223.7656,162.4219 224.8594,161.8125 Q225.9531,161.1875 227.1875,161.1875 Q227.9219,161.1875 228.5625,161.3594 Q229.2188,161.5156 229.7656,161.875 Z " fill="#000000"/>
        <text fill="#000000" font-family="sans-serif" font-size="12" lengthAdjust="spacing" textLength="96" x="241" y="170.9102">MysqlDataSource</text>
        <line style="stroke:#A80036;stroke-width:1.5;" x1="213" x2="339" y1="182" y2="182"/>
        <line style="stroke:#A80036;stroke-width:1.5;" x1="213" x2="339" y1="190" y2="190"/>
        <!--MD5=[fdbf4e06ff7e602aeb39791d8dea2518]
class java.awt.event.ActionEvent-->
        <rect codeLine="2" fill="#FEFECE" filter="url(#f192rpiha5fi3v)" height="48" id="java.awt.event.ActionEvent" style="stroke:#A80036;stroke-width:1.5;" width="95" x="462.5" y="150"/>
        <ellipse cx="477.5" cy="166" fill="#ADD1B2" rx="11" ry="11" style="stroke:#A80036;stroke-width:1.0;"/>
        <path d="M480.2656,161.875 Q480.4219,161.6563 480.6094,161.5469 Q480.7969,161.4375 481.0156,161.4375 Q481.3906,161.4375 481.625,161.7031 Q481.8594,161.9531 481.8594,162.5625 L481.8594,164.0156 Q481.8594,164.625 481.625,164.8906 Q481.3906,165.1563 481.0156,165.1563 Q480.6719,165.1563 480.4688,164.9531 Q480.2656,164.7656 480.1563,164.25 Q480.1094,163.8906 479.9219,163.7031 Q479.5938,163.3281 478.9844,163.1094 Q478.375,162.8906 477.75,162.8906 Q476.9844,162.8906 476.3438,163.2188 Q475.7188,163.5469 475.2188,164.2969 Q474.7344,165.0469 474.7344,166.0781 L474.7344,167.1719 Q474.7344,168.4063 475.625,169.2344 Q476.5156,170.0469 478.1094,170.0469 Q479.0469,170.0469 479.7031,169.7969 Q480.0938,169.6406 480.5156,169.2031 Q480.7813,168.9375 480.9219,168.8594 Q481.0781,168.7813 481.2813,168.7813 Q481.6094,168.7813 481.8594,169.0469 Q482.125,169.2969 482.125,169.6406 Q482.125,169.9844 481.7813,170.3906 Q481.2813,170.9688 480.4844,171.2969 Q479.4063,171.75 478.1094,171.75 Q476.5938,171.75 475.3906,171.125 Q474.4063,170.625 473.7188,169.5625 Q473.0313,168.4844 473.0313,167.2031 L473.0313,166.0469 Q473.0313,164.7188 473.6406,163.5781 Q474.2656,162.4219 475.3594,161.8125 Q476.4531,161.1875 477.6875,161.1875 Q478.4219,161.1875 479.0625,161.3594 Q479.7188,161.5156 480.2656,161.875 Z " fill="#000000"/>
        <text fill="#000000" font-family="sans-serif" font-size="12" lengthAdjust="spacing" textLength="63" x="491.5" y="170.9102">ActionEvent</text>
        <line style="stroke:#A80036;stroke-width:1.5;" x1="463.5" x2="556.5" y1="182" y2="182"/>
        <line style="stroke:#A80036;stroke-width:1.5;" x1="463.5" x2="556.5" y1="190" y2="190"/>
        <!--MD5=[06343bf850d7d7a24456cd327e63b99b]
class java.io.BufferedReader-->
        <rect codeLine="3" fill="#FEFECE" filter="url(#f192rpiha5fi3v)" height="48" id="java.io.BufferedReader" style="stroke:#A80036;stroke-width:1.5;" width="119" x="1028.5" y="150"/>
        <ellipse cx="1043.5" cy="166" fill="#ADD1B2" rx="11" ry="11" style="stroke:#A80036;stroke-width:1.0;"/>
        <path d="M1046.2656,161.875 Q1046.4219,161.6563 1046.6094,161.5469 Q1046.7969,161.4375 1047.0156,161.4375 Q1047.3906,161.4375 1047.625,161.7031 Q1047.8594,161.9531 1047.8594,162.5625 L1047.8594,164.0156 Q1047.8594,164.625 1047.625,164.8906 Q1047.3906,165.1563 1047.0156,165.1563 Q1046.6719,165.1563 1046.4688,164.9531 Q1046.2656,164.7656 1046.1563,164.25 Q1046.1094,163.8906 1045.9219,163.7031 Q1045.5938,163.3281 1044.9844,163.1094 Q1044.375,162.8906 1043.75,162.8906 Q1042.9844,162.8906 1042.3438,163.2188 Q1041.7188,163.5469 1041.2188,164.2969 Q1040.7344,165.0469 1040.7344,166.0781 L1040.7344,167.1719 Q1040.7344,168.4063 1041.625,169.2344 Q1042.5156,170.0469 1044.1094,170.0469 Q1045.0469,170.0469 1045.7031,169.7969 Q1046.0938,169.6406 1046.5156,169.2031 Q1046.7813,168.9375 1046.9219,168.8594 Q1047.0781,168.7813 1047.2813,168.7813 Q1047.6094,168.7813 1047.8594,169.0469 Q1048.125,169.2969 1048.125,169.6406 Q1048.125,169.9844 1047.7813,170.3906 Q1047.2813,170.9688 1046.4844,171.2969 Q1045.4063,171.75 1044.1094,171.75 Q1042.5938,171.75 1041.3906,171.125 Q1040.4063,170.625 1039.7188,169.5625 Q1039.0313,168.4844 1039.0313,167.2031 L1039.0313,166.0469 Q1039.0313,164.7188 1039.6406,163.5781 Q1040.2656,162.4219 1041.3594,161.8125 Q1042.4531,161.1875 1043.6875,161.1875 Q1044.4219,161.1875 1045.0625,161.3594 Q1045.7188,161.5156 1046.2656,161.875 Z " fill="#000000"/>
        <text fill="#000000" font-family="sans-serif" font-size="12" lengthAdjust="spacing" textLength="87" x="1057.5" y="170.9102">BufferedReader</text>
        <line style="stroke:#A80036;stroke-width:1.5;" x1="1029.5" x2="1146.5" y1="182" y2="182"/>
        <line style="stroke:#A80036;stroke-width:1.5;" x1="1029.5" x2="1146.5" y1="190" y2="190"/>
        <!--MD5=[b25776587cf1d2fa4a8c3192d28db6ac]
class java.io.FileInputStream-->
        <rect codeLine="4" fill="#FEFECE" filter="url(#f192rpiha5fi3v)" height="48" id="java.io.FileInputStream" style="stroke:#A80036;stroke-width:1.5;" width="119" x="874.5" y="150"/>
        <ellipse cx="889.5" cy="166" fill="#ADD1B2" rx="11" ry="11" style="stroke:#A80036;stroke-width:1.0;"/>
        <path d="M892.2656,161.875 Q892.4219,161.6563 892.6094,161.5469 Q892.7969,161.4375 893.0156,161.4375 Q893.3906,161.4375 893.625,161.7031 Q893.8594,161.9531 893.8594,162.5625 L893.8594,164.0156 Q893.8594,164.625 893.625,164.8906 Q893.3906,165.1563 893.0156,165.1563 Q892.6719,165.1563 892.4688,164.9531 Q892.2656,164.7656 892.1563,164.25 Q892.1094,163.8906 891.9219,163.7031 Q891.5938,163.3281 890.9844,163.1094 Q890.375,162.8906 889.75,162.8906 Q888.9844,162.8906 888.3438,163.2188 Q887.7188,163.5469 887.2188,164.2969 Q886.7344,165.0469 886.7344,166.0781 L886.7344,167.1719 Q886.7344,168.4063 887.625,169.2344 Q888.5156,170.0469 890.1094,170.0469 Q891.0469,170.0469 891.7031,169.7969 Q892.0938,169.6406 892.5156,169.2031 Q892.7813,168.9375 892.9219,168.8594 Q893.0781,168.7813 893.2813,168.7813 Q893.6094,168.7813 893.8594,169.0469 Q894.125,169.2969 894.125,169.6406 Q894.125,169.9844 893.7813,170.3906 Q893.2813,170.9688 892.4844,171.2969 Q891.4063,171.75 890.1094,171.75 Q888.5938,171.75 887.3906,171.125 Q886.4063,170.625 885.7188,169.5625 Q885.0313,168.4844 885.0313,167.2031 L885.0313,166.0469 Q885.0313,164.7188 885.6406,163.5781 Q886.2656,162.4219 887.3594,161.8125 Q888.4531,161.1875 889.6875,161.1875 Q890.4219,161.1875 891.0625,161.3594 Q891.7188,161.5156 892.2656,161.875 Z " fill="#000000"/>
        <text fill="#000000" font-family="sans-serif" font-size="12" lengthAdjust="spacing" textLength="87" x="903.5" y="170.9102">FileInputStream</text>
        <line style="stroke:#A80036;stroke-width:1.5;" x1="875.5" x2="992.5" y1="182" y2="182"/>
        <line style="stroke:#A80036;stroke-width:1.5;" x1="875.5" x2="992.5" y1="190" y2="190"/>
        <!--MD5=[9d1b6892cb2fde759809cb9168266939]
class java.io.FileReader-->
        <rect codeLine="5" fill="#FEFECE" filter="url(#f192rpiha5fi3v)" height="48" id="java.io.FileReader" style="stroke:#A80036;stroke-width:1.5;" width="93" x="746.5" y="150"/>
        <ellipse cx="761.5" cy="166" fill="#ADD1B2" rx="11" ry="11" style="stroke:#A80036;stroke-width:1.0;"/>
        <path d="M764.2656,161.875 Q764.4219,161.6563 764.6094,161.5469 Q764.7969,161.4375 765.0156,161.4375 Q765.3906,161.4375 765.625,161.7031 Q765.8594,161.9531 765.8594,162.5625 L765.8594,164.0156 Q765.8594,164.625 765.625,164.8906 Q765.3906,165.1563 765.0156,165.1563 Q764.6719,165.1563 764.4688,164.9531 Q764.2656,164.7656 764.1563,164.25 Q764.1094,163.8906 763.9219,163.7031 Q763.5938,163.3281 762.9844,163.1094 Q762.375,162.8906 761.75,162.8906 Q760.9844,162.8906 760.3438,163.2188 Q759.7188,163.5469 759.2188,164.2969 Q758.7344,165.0469 758.7344,166.0781 L758.7344,167.1719 Q758.7344,168.4063 759.625,169.2344 Q760.5156,170.0469 762.1094,170.0469 Q763.0469,170.0469 763.7031,169.7969 Q764.0938,169.6406 764.5156,169.2031 Q764.7813,168.9375 764.9219,168.8594 Q765.0781,168.7813 765.2813,168.7813 Q765.6094,168.7813 765.8594,169.0469 Q766.125,169.2969 766.125,169.6406 Q766.125,169.9844 765.7813,170.3906 Q765.2813,170.9688 764.4844,171.2969 Q763.4063,171.75 762.1094,171.75 Q760.5938,171.75 759.3906,171.125 Q758.4063,170.625 757.7188,169.5625 Q757.0313,168.4844 757.0313,167.2031 L757.0313,166.0469 Q757.0313,164.7188 757.6406,163.5781 Q758.2656,162.4219 759.3594,161.8125 Q760.4531,161.1875 761.6875,161.1875 Q762.4219,161.1875 763.0625,161.3594 Q763.7188,161.5156 764.2656,161.875 Z " fill="#000000"/>
        <text fill="#000000" font-family="sans-serif" font-size="12" lengthAdjust="spacing" textLength="61" x="775.5" y="170.9102">FileReader</text>
        <line style="stroke:#A80036;stroke-width:1.5;" x1="747.5" x2="838.5" y1="182" y2="182"/>
        <line style="stroke:#A80036;stroke-width:1.5;" x1="747.5" x2="838.5" y1="190" y2="190"/>
        <!--MD5=[f9b1c514720d11632347406872c61b6a]
class java.io.IOException-->
        <rect codeLine="6" fill="#FEFECE" filter="url(#f192rpiha5fi3v)" height="48" id="java.io.IOException" style="stroke:#A80036;stroke-width:1.5;" width="97" x="614.5" y="150"/>
        <ellipse cx="629.5" cy="166" fill="#ADD1B2" rx="11" ry="11" style="stroke:#A80036;stroke-width:1.0;"/>
        <path d="M632.2656,161.875 Q632.4219,161.6563 632.6094,161.5469 Q632.7969,161.4375 633.0156,161.4375 Q633.3906,161.4375 633.625,161.7031 Q633.8594,161.9531 633.8594,162.5625 L633.8594,164.0156 Q633.8594,164.625 633.625,164.8906 Q633.3906,165.1563 633.0156,165.1563 Q632.6719,165.1563 632.4688,164.9531 Q632.2656,164.7656 632.1563,164.25 Q632.1094,163.8906 631.9219,163.7031 Q631.5938,163.3281 630.9844,163.1094 Q630.375,162.8906 629.75,162.8906 Q628.9844,162.8906 628.3438,163.2188 Q627.7188,163.5469 627.2188,164.2969 Q626.7344,165.0469 626.7344,166.0781 L626.7344,167.1719 Q626.7344,168.4063 627.625,169.2344 Q628.5156,170.0469 630.1094,170.0469 Q631.0469,170.0469 631.7031,169.7969 Q632.0938,169.6406 632.5156,169.2031 Q632.7813,168.9375 632.9219,168.8594 Q633.0781,168.7813 633.2813,168.7813 Q633.6094,168.7813 633.8594,169.0469 Q634.125,169.2969 634.125,169.6406 Q634.125,169.9844 633.7813,170.3906 Q633.2813,170.9688 632.4844,171.2969 Q631.4063,171.75 630.1094,171.75 Q628.5938,171.75 627.3906,171.125 Q626.4063,170.625 625.7188,169.5625 Q625.0313,168.4844 625.0313,167.2031 L625.0313,166.0469 Q625.0313,164.7188 625.6406,163.5781 Q626.2656,162.4219 627.3594,161.8125 Q628.4531,161.1875 629.6875,161.1875 Q630.4219,161.1875 631.0625,161.3594 Q631.7188,161.5156 632.2656,161.875 Z " fill="#000000"/>
        <text fill="#000000" font-family="sans-serif" font-size="12" lengthAdjust="spacing" textLength="65" x="643.5" y="170.9102">IOException</text>
        <line style="stroke:#A80036;stroke-width:1.5;" x1="615.5" x2="710.5" y1="182" y2="182"/>
        <line style="stroke:#A80036;stroke-width:1.5;" x1="615.5" x2="710.5" y1="190" y2="190"/>
        <!--MD5=[1bafcdc13397ae67f40f1d0da1080828]
class java.nio.charset.StandardCharsets-->
        <rect codeLine="7" fill="#FEFECE" filter="url(#f192rpiha5fi3v)" height="48" id="java.nio.charset.StandardCharsets" style="stroke:#A80036;stroke-width:1.5;" width="133" x="1204.5" y="150"/>
        <ellipse cx="1219.5" cy="166" fill="#ADD1B2" rx="11" ry="11" style="stroke:#A80036;stroke-width:1.0;"/>
        <path d="M1222.2656,161.875 Q1222.4219,161.6563 1222.6094,161.5469 Q1222.7969,161.4375 1223.0156,161.4375 Q1223.3906,161.4375 1223.625,161.7031 Q1223.8594,161.9531 1223.8594,162.5625 L1223.8594,164.0156 Q1223.8594,164.625 1223.625,164.8906 Q1223.3906,165.1563 1223.0156,165.1563 Q1222.6719,165.1563 1222.4688,164.9531 Q1222.2656,164.7656 1222.1563,164.25 Q1222.1094,163.8906 1221.9219,163.7031 Q1221.5938,163.3281 1220.9844,163.1094 Q1220.375,162.8906 1219.75,162.8906 Q1218.9844,162.8906 1218.3438,163.2188 Q1217.7188,163.5469 1217.2188,164.2969 Q1216.7344,165.0469 1216.7344,166.0781 L1216.7344,167.1719 Q1216.7344,168.4063 1217.625,169.2344 Q1218.5156,170.0469 1220.1094,170.0469 Q1221.0469,170.0469 1221.7031,169.7969 Q1222.0938,169.6406 1222.5156,169.2031 Q1222.7813,168.9375 1222.9219,168.8594 Q1223.0781,168.7813 1223.2813,168.7813 Q1223.6094,168.7813 1223.8594,169.0469 Q1224.125,169.2969 1224.125,169.6406 Q1224.125,169.9844 1223.7813,170.3906 Q1223.2813,170.9688 1222.4844,171.2969 Q1221.4063,171.75 1220.1094,171.75 Q1218.5938,171.75 1217.3906,171.125 Q1216.4063,170.625 1215.7188,169.5625 Q1215.0313,168.4844 1215.0313,167.2031 L1215.0313,166.0469 Q1215.0313,164.7188 1215.6406,163.5781 Q1216.2656,162.4219 1217.3594,161.8125 Q1218.4531,161.1875 1219.6875,161.1875 Q1220.4219,161.1875 1221.0625,161.3594 Q1221.7188,161.5156 1222.2656,161.875 Z " fill="#000000"/>
        <text fill="#000000" font-family="sans-serif" font-size="12" lengthAdjust="spacing" textLength="101" x="1233.5" y="170.9102">StandardCharsets</text>
        <line style="stroke:#A80036;stroke-width:1.5;" x1="1205.5" x2="1336.5" y1="182" y2="182"/>
        <line style="stroke:#A80036;stroke-width:1.5;" x1="1205.5" x2="1336.5" y1="190" y2="190"/>
        <!--MD5=[5fcb86e028869ab1088d78730f70e338]
class java.sql.Connection-->
        <rect codeLine="8" fill="#FEFECE" filter="url(#f192rpiha5fi3v)" height="48" id="java.sql.Connection" style="stroke:#A80036;stroke-width:1.5;" width="95" x="1834.5" y="150"/>
        <ellipse cx="1849.5" cy="166" fill="#ADD1B2" rx="11" ry="11" style="stroke:#A80036;stroke-width:1.0;"/>
        <path d="M1852.2656,161.875 Q1852.4219,161.6563 1852.6094,161.5469 Q1852.7969,161.4375 1853.0156,161.4375 Q1853.3906,161.4375 1853.625,161.7031 Q1853.8594,161.9531 1853.8594,162.5625 L1853.8594,164.0156 Q1853.8594,164.625 1853.625,164.8906 Q1853.3906,165.1563 1853.0156,165.1563 Q1852.6719,165.1563 1852.4688,164.9531 Q1852.2656,164.7656 1852.1563,164.25 Q1852.1094,163.8906 1851.9219,163.7031 Q1851.5938,163.3281 1850.9844,163.1094 Q1850.375,162.8906 1849.75,162.8906 Q1848.9844,162.8906 1848.3438,163.2188 Q1847.7188,163.5469 1847.2188,164.2969 Q1846.7344,165.0469 1846.7344,166.0781 L1846.7344,167.1719 Q1846.7344,168.4063 1847.625,169.2344 Q1848.5156,170.0469 1850.1094,170.0469 Q1851.0469,170.0469 1851.7031,169.7969 Q1852.0938,169.6406 1852.5156,169.2031 Q1852.7813,168.9375 1852.9219,168.8594 Q1853.0781,168.7813 1853.2813,168.7813 Q1853.6094,168.7813 1853.8594,169.0469 Q1854.125,169.2969 1854.125,169.6406 Q1854.125,169.9844 1853.7813,170.3906 Q1853.2813,170.9688 1852.4844,171.2969 Q1851.4063,171.75 1850.1094,171.75 Q1848.5938,171.75 1847.3906,171.125 Q1846.4063,170.625 1845.7188,169.5625 Q1845.0313,168.4844 1845.0313,167.2031 L1845.0313,166.0469 Q1845.0313,164.7188 1845.6406,163.5781 Q1846.2656,162.4219 1847.3594,161.8125 Q1848.4531,161.1875 1849.6875,161.1875 Q1850.4219,161.1875 1851.0625,161.3594 Q1851.7188,161.5156 1852.2656,161.875 Z " fill="#000000"/>
        <text fill="#000000" font-family="sans-serif" font-size="12" lengthAdjust="spacing" textLength="63" x="1863.5" y="170.9102">Connection</text>
        <line style="stroke:#A80036;stroke-width:1.5;" x1="1835.5" x2="1928.5" y1="182" y2="182"/>
        <line style="stroke:#A80036;stroke-width:1.5;" x1="1835.5" x2="1928.5" y1="190" y2="190"/>
        <!--MD5=[07a4118b6af040118095243d4f16abbf]
class java.sql.PreparedStatement-->
        <rect codeLine="9" fill="#FEFECE" filter="url(#f192rpiha5fi3v)" height="48" id="java.sql.PreparedStatement" style="stroke:#A80036;stroke-width:1.5;" width="139" x="1660.5" y="150"/>
        <ellipse cx="1675.5" cy="166" fill="#ADD1B2" rx="11" ry="11" style="stroke:#A80036;stroke-width:1.0;"/>
        <path d="M1678.2656,161.875 Q1678.4219,161.6563 1678.6094,161.5469 Q1678.7969,161.4375 1679.0156,161.4375 Q1679.3906,161.4375 1679.625,161.7031 Q1679.8594,161.9531 1679.8594,162.5625 L1679.8594,164.0156 Q1679.8594,164.625 1679.625,164.8906 Q1679.3906,165.1563 1679.0156,165.1563 Q1678.6719,165.1563 1678.4688,164.9531 Q1678.2656,164.7656 1678.1563,164.25 Q1678.1094,163.8906 1677.9219,163.7031 Q1677.5938,163.3281 1676.9844,163.1094 Q1676.375,162.8906 1675.75,162.8906 Q1674.9844,162.8906 1674.3438,163.2188 Q1673.7188,163.5469 1673.2188,164.2969 Q1672.7344,165.0469 1672.7344,166.0781 L1672.7344,167.1719 Q1672.7344,168.4063 1673.625,169.2344 Q1674.5156,170.0469 1676.1094,170.0469 Q1677.0469,170.0469 1677.7031,169.7969 Q1678.0938,169.6406 1678.5156,169.2031 Q1678.7813,168.9375 1678.9219,168.8594 Q1679.0781,168.7813 1679.2813,168.7813 Q1679.6094,168.7813 1679.8594,169.0469 Q1680.125,169.2969 1680.125,169.6406 Q1680.125,169.9844 1679.7813,170.3906 Q1679.2813,170.9688 1678.4844,171.2969 Q1677.4063,171.75 1676.1094,171.75 Q1674.5938,171.75 1673.3906,171.125 Q1672.4063,170.625 1671.7188,169.5625 Q1671.0313,168.4844 1671.0313,167.2031 L1671.0313,166.0469 Q1671.0313,164.7188 1671.6406,163.5781 Q1672.2656,162.4219 1673.3594,161.8125 Q1674.4531,161.1875 1675.6875,161.1875 Q1676.4219,161.1875 1677.0625,161.3594 Q1677.7188,161.5156 1678.2656,161.875 Z " fill="#000000"/>
        <text fill="#000000" font-family="sans-serif" font-size="12" lengthAdjust="spacing" textLength="107" x="1689.5" y="170.9102">PreparedStatement</text>
        <line style="stroke:#A80036;stroke-width:1.5;" x1="1661.5" x2="1798.5" y1="182" y2="182"/>
        <line style="stroke:#A80036;stroke-width:1.5;" x1="1661.5" x2="1798.5" y1="190" y2="190"/>
        <!--MD5=[ca3892dc8b0229ebf88950402efb7cd1]
class java.sql.ResultSet-->
        <rect codeLine="10" fill="#FEFECE" filter="url(#f192rpiha5fi3v)" height="48" id="java.sql.ResultSet" style="stroke:#A80036;stroke-width:1.5;" width="86" x="1539" y="150"/>
        <ellipse cx="1554" cy="166" fill="#ADD1B2" rx="11" ry="11" style="stroke:#A80036;stroke-width:1.0;"/>
        <path d="M1556.7656,161.875 Q1556.9219,161.6563 1557.1094,161.5469 Q1557.2969,161.4375 1557.5156,161.4375 Q1557.8906,161.4375 1558.125,161.7031 Q1558.3594,161.9531 1558.3594,162.5625 L1558.3594,164.0156 Q1558.3594,164.625 1558.125,164.8906 Q1557.8906,165.1563 1557.5156,165.1563 Q1557.1719,165.1563 1556.9688,164.9531 Q1556.7656,164.7656 1556.6563,164.25 Q1556.6094,163.8906 1556.4219,163.7031 Q1556.0938,163.3281 1555.4844,163.1094 Q1554.875,162.8906 1554.25,162.8906 Q1553.4844,162.8906 1552.8438,163.2188 Q1552.2188,163.5469 1551.7188,164.2969 Q1551.2344,165.0469 1551.2344,166.0781 L1551.2344,167.1719 Q1551.2344,168.4063 1552.125,169.2344 Q1553.0156,170.0469 1554.6094,170.0469 Q1555.5469,170.0469 1556.2031,169.7969 Q1556.5938,169.6406 1557.0156,169.2031 Q1557.2813,168.9375 1557.4219,168.8594 Q1557.5781,168.7813 1557.7813,168.7813 Q1558.1094,168.7813 1558.3594,169.0469 Q1558.625,169.2969 1558.625,169.6406 Q1558.625,169.9844 1558.2813,170.3906 Q1557.7813,170.9688 1556.9844,171.2969 Q1555.9063,171.75 1554.6094,171.75 Q1553.0938,171.75 1551.8906,171.125 Q1550.9063,170.625 1550.2188,169.5625 Q1549.5313,168.4844 1549.5313,167.2031 L1549.5313,166.0469 Q1549.5313,164.7188 1550.1406,163.5781 Q1550.7656,162.4219 1551.8594,161.8125 Q1552.9531,161.1875 1554.1875,161.1875 Q1554.9219,161.1875 1555.5625,161.3594 Q1556.2188,161.5156 1556.7656,161.875 Z " fill="#000000"/>
        <text fill="#000000" font-family="sans-serif" font-size="12" lengthAdjust="spacing" textLength="54" x="1568" y="170.9102">ResultSet</text>
        <line style="stroke:#A80036;stroke-width:1.5;" x1="1540" x2="1624" y1="182" y2="182"/>
        <line style="stroke:#A80036;stroke-width:1.5;" x1="1540" x2="1624" y1="190" y2="190"/>
        <!--MD5=[0dc616b5ef98f05494a35399b7990cbf]
class java.sql.SQLException-->
        <rect codeLine="11" fill="#FEFECE" filter="url(#f192rpiha5fi3v)" height="48" id="java.sql.SQLException" style="stroke:#A80036;stroke-width:1.5;" width="109" x="1394.5" y="150"/>
        <ellipse cx="1409.5" cy="166" fill="#ADD1B2" rx="11" ry="11" style="stroke:#A80036;stroke-width:1.0;"/>
        <path d="M1412.2656,161.875 Q1412.4219,161.6563 1412.6094,161.5469 Q1412.7969,161.4375 1413.0156,161.4375 Q1413.3906,161.4375 1413.625,161.7031 Q1413.8594,161.9531 1413.8594,162.5625 L1413.8594,164.0156 Q1413.8594,164.625 1413.625,164.8906 Q1413.3906,165.1563 1413.0156,165.1563 Q1412.6719,165.1563 1412.4688,164.9531 Q1412.2656,164.7656 1412.1563,164.25 Q1412.1094,163.8906 1411.9219,163.7031 Q1411.5938,163.3281 1410.9844,163.1094 Q1410.375,162.8906 1409.75,162.8906 Q1408.9844,162.8906 1408.3438,163.2188 Q1407.7188,163.5469 1407.2188,164.2969 Q1406.7344,165.0469 1406.7344,166.0781 L1406.7344,167.1719 Q1406.7344,168.4063 1407.625,169.2344 Q1408.5156,170.0469 1410.1094,170.0469 Q1411.0469,170.0469 1411.7031,169.7969 Q1412.0938,169.6406 1412.5156,169.2031 Q1412.7813,168.9375 1412.9219,168.8594 Q1413.0781,168.7813 1413.2813,168.7813 Q1413.6094,168.7813 1413.8594,169.0469 Q1414.125,169.2969 1414.125,169.6406 Q1414.125,169.9844 1413.7813,170.3906 Q1413.2813,170.9688 1412.4844,171.2969 Q1411.4063,171.75 1410.1094,171.75 Q1408.5938,171.75 1407.3906,171.125 Q1406.4063,170.625 1405.7188,169.5625 Q1405.0313,168.4844 1405.0313,167.2031 L1405.0313,166.0469 Q1405.0313,164.7188 1405.6406,163.5781 Q1406.2656,162.4219 1407.3594,161.8125 Q1408.4531,161.1875 1409.6875,161.1875 Q1410.4219,161.1875 1411.0625,161.3594 Q1411.7188,161.5156 1412.2656,161.875 Z " fill="#000000"/>
        <text fill="#000000" font-family="sans-serif" font-size="12" lengthAdjust="spacing" textLength="77" x="1423.5" y="170.9102">SQLException</text>
        <line style="stroke:#A80036;stroke-width:1.5;" x1="1395.5" x2="1502.5" y1="182" y2="182"/>
        <line style="stroke:#A80036;stroke-width:1.5;" x1="1395.5" x2="1502.5" y1="190" y2="190"/>
        <!--MD5=[8479184e23c2bec09445fccfd361f5d2]
class java.util.ArrayList-->
        <rect codeLine="12" fill="#FEFECE" filter="url(#f192rpiha5fi3v)" height="48" id="java.util.ArrayList" style="stroke:#A80036;stroke-width:1.5;" width="79" x="2110.5" y="150"/>
        <ellipse cx="2125.5" cy="166" fill="#ADD1B2" rx="11" ry="11" style="stroke:#A80036;stroke-width:1.0;"/>
        <path d="M2128.2656,161.875 Q2128.4219,161.6563 2128.6094,161.5469 Q2128.7969,161.4375 2129.0156,161.4375 Q2129.3906,161.4375 2129.625,161.7031 Q2129.8594,161.9531 2129.8594,162.5625 L2129.8594,164.0156 Q2129.8594,164.625 2129.625,164.8906 Q2129.3906,165.1563 2129.0156,165.1563 Q2128.6719,165.1563 2128.4688,164.9531 Q2128.2656,164.7656 2128.1563,164.25 Q2128.1094,163.8906 2127.9219,163.7031 Q2127.5938,163.3281 2126.9844,163.1094 Q2126.375,162.8906 2125.75,162.8906 Q2124.9844,162.8906 2124.3438,163.2188 Q2123.7188,163.5469 2123.2188,164.2969 Q2122.7344,165.0469 2122.7344,166.0781 L2122.7344,167.1719 Q2122.7344,168.4063 2123.625,169.2344 Q2124.5156,170.0469 2126.1094,170.0469 Q2127.0469,170.0469 2127.7031,169.7969 Q2128.0938,169.6406 2128.5156,169.2031 Q2128.7813,168.9375 2128.9219,168.8594 Q2129.0781,168.7813 2129.2813,168.7813 Q2129.6094,168.7813 2129.8594,169.0469 Q2130.125,169.2969 2130.125,169.6406 Q2130.125,169.9844 2129.7813,170.3906 Q2129.2813,170.9688 2128.4844,171.2969 Q2127.4063,171.75 2126.1094,171.75 Q2124.5938,171.75 2123.3906,171.125 Q2122.4063,170.625 2121.7188,169.5625 Q2121.0313,168.4844 2121.0313,167.2031 L2121.0313,166.0469 Q2121.0313,164.7188 2121.6406,163.5781 Q2122.2656,162.4219 2123.3594,161.8125 Q2124.4531,161.1875 2125.6875,161.1875 Q2126.4219,161.1875 2127.0625,161.3594 Q2127.7188,161.5156 2128.2656,161.875 Z " fill="#000000"/>
        <text fill="#000000" font-family="sans-serif" font-size="12" lengthAdjust="spacing" textLength="47" x="2139.5" y="170.9102">ArrayList</text>
        <line style="stroke:#A80036;stroke-width:1.5;" x1="2111.5" x2="2188.5" y1="182" y2="182"/>
        <line style="stroke:#A80036;stroke-width:1.5;" x1="2111.5" x2="2188.5" y1="190" y2="190"/>
        <!--MD5=[3e5da536a98d1ce88349162a207d5656]
class java.util.Properties-->
        <rect codeLine="13" fill="#FEFECE" filter="url(#f192rpiha5fi3v)" height="48" id="java.util.Properties" style="stroke:#A80036;stroke-width:1.5;" width="89" x="1986.5" y="150"/>
        <ellipse cx="2001.5" cy="166" fill="#ADD1B2" rx="11" ry="11" style="stroke:#A80036;stroke-width:1.0;"/>
        <path d="M2004.2656,161.875 Q2004.4219,161.6563 2004.6094,161.5469 Q2004.7969,161.4375 2005.0156,161.4375 Q2005.3906,161.4375 2005.625,161.7031 Q2005.8594,161.9531 2005.8594,162.5625 L2005.8594,164.0156 Q2005.8594,164.625 2005.625,164.8906 Q2005.3906,165.1563 2005.0156,165.1563 Q2004.6719,165.1563 2004.4688,164.9531 Q2004.2656,164.7656 2004.1563,164.25 Q2004.1094,163.8906 2003.9219,163.7031 Q2003.5938,163.3281 2002.9844,163.1094 Q2002.375,162.8906 2001.75,162.8906 Q2000.9844,162.8906 2000.3438,163.2188 Q1999.7188,163.5469 1999.2188,164.2969 Q1998.7344,165.0469 1998.7344,166.0781 L1998.7344,167.1719 Q1998.7344,168.4063 1999.625,169.2344 Q2000.5156,170.0469 2002.1094,170.0469 Q2003.0469,170.0469 2003.7031,169.7969 Q2004.0938,169.6406 2004.5156,169.2031 Q2004.7813,168.9375 2004.9219,168.8594 Q2005.0781,168.7813 2005.2813,168.7813 Q2005.6094,168.7813 2005.8594,169.0469 Q2006.125,169.2969 2006.125,169.6406 Q2006.125,169.9844 2005.7813,170.3906 Q2005.2813,170.9688 2004.4844,171.2969 Q2003.4063,171.75 2002.1094,171.75 Q2000.5938,171.75 1999.3906,171.125 Q1998.4063,170.625 1997.7188,169.5625 Q1997.0313,168.4844 1997.0313,167.2031 L1997.0313,166.0469 Q1997.0313,164.7188 1997.6406,163.5781 Q1998.2656,162.4219 1999.3594,161.8125 Q2000.4531,161.1875 2001.6875,161.1875 Q2002.4219,161.1875 2003.0625,161.3594 Q2003.7188,161.5156 2004.2656,161.875 Z " fill="#000000"/>
        <text fill="#000000" font-family="sans-serif" font-size="12" lengthAdjust="spacing" textLength="57" x="2015.5" y="170.9102">Properties</text>
        <line style="stroke:#A80036;stroke-width:1.5;" x1="1987.5" x2="2074.5" y1="182" y2="182"/>
        <line style="stroke:#A80036;stroke-width:1.5;" x1="1987.5" x2="2074.5" y1="190" y2="190"/>
        <!--MD5=[9762f8dd912beabacc7af433543c76e9]
class moviesearchapp.JFrame-->
        <rect codeLine="14" fill="#FEFECE" filter="url(#f192rpiha5fi3v)" height="48" id="moviesearchapp.JFrame" style="stroke:#A80036;stroke-width:1.5;" width="74" x="57" y="150"/>
        <ellipse cx="72" cy="166" fill="#ADD1B2" rx="11" ry="11" style="stroke:#A80036;stroke-width:1.0;"/>
        <path d="M74.7656,161.875 Q74.9219,161.6563 75.1094,161.5469 Q75.2969,161.4375 75.5156,161.4375 Q75.8906,161.4375 76.125,161.7031 Q76.3594,161.9531 76.3594,162.5625 L76.3594,164.0156 Q76.3594,164.625 76.125,164.8906 Q75.8906,165.1563 75.5156,165.1563 Q75.1719,165.1563 74.9688,164.9531 Q74.7656,164.7656 74.6563,164.25 Q74.6094,163.8906 74.4219,163.7031 Q74.0938,163.3281 73.4844,163.1094 Q72.875,162.8906 72.25,162.8906 Q71.4844,162.8906 70.8438,163.2188 Q70.2188,163.5469 69.7188,164.2969 Q69.2344,165.0469 69.2344,166.0781 L69.2344,167.1719 Q69.2344,168.4063 70.125,169.2344 Q71.0156,170.0469 72.6094,170.0469 Q73.5469,170.0469 74.2031,169.7969 Q74.5938,169.6406 75.0156,169.2031 Q75.2813,168.9375 75.4219,168.8594 Q75.5781,168.7813 75.7813,168.7813 Q76.1094,168.7813 76.3594,169.0469 Q76.625,169.2969 76.625,169.6406 Q76.625,169.9844 76.2813,170.3906 Q75.7813,170.9688 74.9844,171.2969 Q73.9063,171.75 72.6094,171.75 Q71.0938,171.75 69.8906,171.125 Q68.9063,170.625 68.2188,169.5625 Q67.5313,168.4844 67.5313,167.2031 L67.5313,166.0469 Q67.5313,164.7188 68.1406,163.5781 Q68.7656,162.4219 69.8594,161.8125 Q70.9531,161.1875 72.1875,161.1875 Q72.9219,161.1875 73.5625,161.3594 Q74.2188,161.5156 74.7656,161.875 Z " fill="#000000"/>
        <text fill="#000000" font-family="sans-serif" font-size="12" lengthAdjust="spacing" textLength="42" x="86" y="170.9102">JFrame</text>
        <line style="stroke:#A80036;stroke-width:1.5;" x1="58" x2="130" y1="182" y2="182"/>
        <line style="stroke:#A80036;stroke-width:1.5;" x1="58" x2="130" y1="190" y2="190"/>
        <!--MD5=[c045599f7863104925ab200d319378f6]
class moviesearchapp.MovieSearchApp-->
        <rect codeLine="15" fill="#FEFECE" filter="url(#f192rpiha5fi3v)" height="48" id="moviesearchapp.MovieSearchApp" style="stroke:#A80036;stroke-width:1.5;" width="123" x="32.5" y="42"/>
        <ellipse cx="47.5" cy="58" fill="#ADD1B2" rx="11" ry="11" style="stroke:#A80036;stroke-width:1.0;"/>
        <path d="M50.2656,53.875 Q50.4219,53.6563 50.6094,53.5469 Q50.7969,53.4375 51.0156,53.4375 Q51.3906,53.4375 51.625,53.7031 Q51.8594,53.9531 51.8594,54.5625 L51.8594,56.0156 Q51.8594,56.625 51.625,56.8906 Q51.3906,57.1563 51.0156,57.1563 Q50.6719,57.1563 50.4688,56.9531 Q50.2656,56.7656 50.1563,56.25 Q50.1094,55.8906 49.9219,55.7031 Q49.5938,55.3281 48.9844,55.1094 Q48.375,54.8906 47.75,54.8906 Q46.9844,54.8906 46.3438,55.2188 Q45.7188,55.5469 45.2188,56.2969 Q44.7344,57.0469 44.7344,58.0781 L44.7344,59.1719 Q44.7344,60.4063 45.625,61.2344 Q46.5156,62.0469 48.1094,62.0469 Q49.0469,62.0469 49.7031,61.7969 Q50.0938,61.6406 50.5156,61.2031 Q50.7813,60.9375 50.9219,60.8594 Q51.0781,60.7813 51.2813,60.7813 Q51.6094,60.7813 51.8594,61.0469 Q52.125,61.2969 52.125,61.6406 Q52.125,61.9844 51.7813,62.3906 Q51.2813,62.9688 50.4844,63.2969 Q49.4063,63.75 48.1094,63.75 Q46.5938,63.75 45.3906,63.125 Q44.4063,62.625 43.7188,61.5625 Q43.0313,60.4844 43.0313,59.2031 L43.0313,58.0469 Q43.0313,56.7188 43.6406,55.5781 Q44.2656,54.4219 45.3594,53.8125 Q46.4531,53.1875 47.6875,53.1875 Q48.4219,53.1875 49.0625,53.3594 Q49.7188,53.5156 50.2656,53.875 Z " fill="#000000"/>
        <text fill="#000000" font-family="sans-serif" font-size="12" lengthAdjust="spacing" textLength="91" x="61.5" y="62.9102">MovieSearchApp</text>
        <line style="stroke:#A80036;stroke-width:1.5;" x1="33.5" x2="154.5" y1="74" y2="74"/>
        <line style="stroke:#A80036;stroke-width:1.5;" x1="33.5" x2="154.5" y1="82" y2="82"/>
        <!--MD5=[18e45c559b998d4a856e66bed7e91c16]
link moviesearchapp.MovieSearchApp to com.mysql.jdbc.jdbc2.optional.MysqlDataSource-->
        <path codeLine="16" d="M142.28,90.12 C152.22,95.16 162.53,100.6 172,106 C194.21,118.65 218.24,134.02 237.6,146.85 " fill="none" id="moviesearchapp.MovieSearchApp-to-com.mysql.jdbc.jdbc2.optional.MysqlDataSource" style="stroke:#A80036;stroke-width:1.0;stroke-dasharray:7.0,7.0;"/>
        <polygon fill="#A80036" points="241.91,149.71,236.6272,141.3978,237.7454,146.9431,232.2001,148.0613,241.91,149.71" style="stroke:#A80036;stroke-width:1.0;"/>
        <!--MD5=[9b34692fdf39234c1ad7e9e8fc3de92c]
link moviesearchapp.MovieSearchApp to java.awt.event.ActionEvent-->
        <path codeLine="17" d="M155.58,71.57 C209.3,76.64 288.91,86.78 356,106 C392.32,116.41 431.32,133.44 460.99,147.73 " fill="none" id="moviesearchapp.MovieSearchApp-to-java.awt.event.ActionEvent" style="stroke:#A80036;stroke-width:1.0;stroke-dasharray:7.0,7.0;"/>
        <polygon fill="#A80036" points="465.67,150,459.3027,142.4862,461.1669,147.8271,455.826,149.6912,465.67,150" style="stroke:#A80036;stroke-width:1.0;"/>
        <!--MD5=[df7a9b73cb7d918bdf5753d88d30b4e5]
link moviesearchapp.MovieSearchApp to java.io.BufferedReader-->
        <path codeLine="18" d="M155.57,67.27 C348.34,68.43 932.09,74.55 1011,106 C1032.24,114.47 1051.64,131.43 1065.65,146.16 " fill="none" id="moviesearchapp.MovieSearchApp-to-java.io.BufferedReader" style="stroke:#A80036;stroke-width:1.0;stroke-dasharray:7.0,7.0;"/>
        <polygon fill="#A80036" points="1069.09,149.86,1065.8915,140.545,1065.6856,146.1981,1060.0324,145.9921,1069.09,149.86" style="stroke:#A80036;stroke-width:1.0;"/>
        <!--MD5=[423242c976dc4c26c20067067feaa92e]
link moviesearchapp.MovieSearchApp to java.io.FileInputStream-->
        <path codeLine="19" d="M155.52,67.84 C325.41,70.49 792.77,80.08 857,106 C878.21,114.56 897.6,131.52 911.62,146.23 " fill="none" id="moviesearchapp.MovieSearchApp-to-java.io.FileInputStream" style="stroke:#A80036;stroke-width:1.0;stroke-dasharray:7.0,7.0;"/>
        <polygon fill="#A80036" points="915.07,149.92,911.8339,140.618,911.6508,146.2719,905.9969,146.0887,915.07,149.92" style="stroke:#A80036;stroke-width:1.0;"/>
        <!--MD5=[8c5fa4964e5ba3544532afc45f613489]
link moviesearchapp.MovieSearchApp to java.io.FileReader-->
        <path codeLine="20" d="M155.63,68.24 C305.01,71.59 677.91,82.27 729,106 C747.54,114.61 763.44,131.18 774.75,145.68 " fill="none" id="moviesearchapp.MovieSearchApp-to-java.io.FileReader" style="stroke:#A80036;stroke-width:1.0;stroke-dasharray:7.0,7.0;"/>
        <polygon fill="#A80036" points="777.82,149.71,775.5432,140.1279,774.7881,145.7342,769.1818,144.979,777.82,149.71" style="stroke:#A80036;stroke-width:1.0;"/>
        <!--MD5=[d81b98d2a6e017b292a3cb191ad254da]
link moviesearchapp.MovieSearchApp to java.io.IOException-->
        <path codeLine="21" d="M155.81,67.76 C267.7,69.85 499.17,77.56 574,106 C597.17,114.8 619.44,131.58 635.91,146.14 " fill="none" id="moviesearchapp.MovieSearchApp-to-java.io.IOException" style="stroke:#A80036;stroke-width:1.0;stroke-dasharray:7.0,7.0;"/>
        <polygon fill="#A80036" points="639.97,149.79,635.9562,140.7961,636.2535,146.4452,630.6045,146.7425,639.97,149.79" style="stroke:#A80036;stroke-width:1.0;"/>
        <!--MD5=[ee9930ce4b05a18fa768ab1cfc3cbb6a]
link moviesearchapp.MovieSearchApp to java.nio.charset.StandardCharsets-->
        <path codeLine="22" d="M155.69,67.39 C369.04,68.99 1067.82,76.47 1164,106 C1191.39,114.41 1218.7,131.7 1238.87,146.6 " fill="none" id="moviesearchapp.MovieSearchApp-to-java.nio.charset.StandardCharsets" style="stroke:#A80036;stroke-width:1.0;stroke-dasharray:7.0,7.0;"/>
        <polygon fill="#A80036" points="1243.07,149.75,1238.27,141.15,1239.07,146.75,1233.47,147.55,1243.07,149.75" style="stroke:#A80036;stroke-width:1.0;"/>
        <!--MD5=[8c0b767f68af0a5fb0eb5ff612045262]
link moviesearchapp.MovieSearchApp to java.sql.Connection-->
        <path codeLine="23" d="M155.75,67.09 C454.59,67.67 1739.49,72.17 1817,106 C1836.01,114.3 1852.25,131.04 1863.75,145.71 " fill="none" id="moviesearchapp.MovieSearchApp-to-java.sql.Connection" style="stroke:#A80036;stroke-width:1.0;stroke-dasharray:7.0,7.0;"/>
        <polygon fill="#A80036" points="1866.87,149.79,1864.5714,140.2131,1863.829,145.821,1858.2211,145.0787,1866.87,149.79" style="stroke:#A80036;stroke-width:1.0;"/>
        <!--MD5=[348fd26d24ecf0bb0f9a3616cebae3b1]
link moviesearchapp.MovieSearchApp to java.sql.PreparedStatement-->
        <path codeLine="24" d="M155.82,67.48 C435.5,69.81 1571.89,80.79 1643,106 C1666.19,114.22 1688.11,131.18 1704.15,145.98 " fill="none" id="moviesearchapp.MovieSearchApp-to-java.sql.PreparedStatement" style="stroke:#A80036;stroke-width:1.0;stroke-dasharray:7.0,7.0;"/>
        <polygon fill="#A80036" points="1708.09,149.69,1704.2777,140.6089,1704.449,146.2632,1698.7947,146.4345,1708.09,149.69" style="stroke:#A80036;stroke-width:1.0;"/>
        <!--MD5=[2f41ef9978d806e74ac66291c42a2760]
link moviesearchapp.MovieSearchApp to java.sql.ResultSet-->
        <path codeLine="25" d="M155.89,67.34 C422,68.99 1458.2,77.21 1521,106 C1539.14,114.32 1554.29,130.85 1564.95,145.41 " fill="none" id="moviesearchapp.MovieSearchApp-to-java.sql.ResultSet" style="stroke:#A80036;stroke-width:1.0;stroke-dasharray:7.0,7.0;"/>
        <polygon fill="#A80036" points="1568.11,149.85,1566.1466,140.1988,1565.2092,145.7775,1559.6306,144.8401,1568.11,149.85" style="stroke:#A80036;stroke-width:1.0;"/>
        <!--MD5=[a7dd5b56e428f738b08331091e0de856]
link moviesearchapp.MovieSearchApp to java.sql.SQLException-->
        <path codeLine="26" d="M155.78,66.83 C393.28,66.47 1239.97,67.88 1354,106 C1378.91,114.33 1403.05,131.51 1420.76,146.38 " fill="none" id="moviesearchapp.MovieSearchApp-to-java.sql.SQLException" style="stroke:#A80036;stroke-width:1.0;stroke-dasharray:7.0,7.0;"/>
        <polygon fill="#A80036" points="1424.67,149.71,1420.4206,140.8251,1420.8667,146.4643,1415.2274,146.9104,1424.67,149.71" style="stroke:#A80036;stroke-width:1.0;"/>
        <!--MD5=[9ccdd80620e88e166ef52d113d79601b]
link moviesearchapp.MovieSearchApp to java.util.ArrayList-->
        <path codeLine="27" d="M155.68,66.78 C482.82,65.8 2003.46,63.55 2093,106 C2110.51,114.3 2124.66,130.83 2134.49,145.39 " fill="none" id="moviesearchapp.MovieSearchApp-to-java.util.ArrayList" style="stroke:#A80036;stroke-width:1.0;stroke-dasharray:7.0,7.0;"/>
        <polygon fill="#A80036" points="2137.4,149.84,2135.8361,140.1161,2134.6695,145.6514,2129.1343,144.4849,2137.4,149.84" style="stroke:#A80036;stroke-width:1.0;"/>
        <!--MD5=[d1325200d08b97d1fbe4980e2e053526]
link moviesearchapp.MovieSearchApp to java.util.Properties-->
        <path codeLine="28" d="M155.57,67.2 C467.3,68.34 1860.01,75.17 1946,106 C1968.99,114.24 1990.55,131.39 2006.2,146.27 " fill="none" id="moviesearchapp.MovieSearchApp-to-java.util.Properties" style="stroke:#A80036;stroke-width:1.0;stroke-dasharray:7.0,7.0;"/>
        <polygon fill="#A80036" points="2010.05,150,2006.3667,140.8658,2006.4579,146.5219,2000.8018,146.6132,2010.05,150" style="stroke:#A80036;stroke-width:1.0;"/>
        <!--MD5=[1fa0658f483f9104709bb8b2892d0a0d]
link moviesearchapp.MovieSearchApp to moviesearchapp.JFrame-->
        <path codeLine="29" d="M94,90 C94,101.59 94,116.03 94,129.6 " fill="none" id="moviesearchapp.MovieSearchApp-to-moviesearchapp.JFrame" style="stroke:#A80036;stroke-width:1.0;"/>
        <polygon fill="none" points="101,129.68,94,149.68,87,129.68,101,129.68" style="stroke:#A80036;stroke-width:1.0;"/>
        <!--MD5=[8176ac73d60520d6ff7e907feaeabf5b]
@startuml
class com.mysql.jdbc.jdbc2.optional.MysqlDataSource
class java.awt.event.ActionEvent
class java.io.BufferedReader
class java.io.FileInputStream
class java.io.FileReader
class java.io.IOException
class java.nio.charset.StandardCharsets
class java.sql.Connection
class java.sql.PreparedStatement
class java.sql.ResultSet
class java.sql.SQLException
class java.util.ArrayList
class java.util.Properties
class moviesearchapp.JFrame
class moviesearchapp.MovieSearchApp
moviesearchapp.MovieSearchApp ..> com.mysql.jdbc.jdbc2.optional.MysqlDataSource
moviesearchapp.MovieSearchApp ..> java.awt.event.ActionEvent
moviesearchapp.MovieSearchApp ..> java.io.BufferedReader
moviesearchapp.MovieSearchApp ..> java.io.FileInputStream
moviesearchapp.MovieSearchApp ..> java.io.FileReader
moviesearchapp.MovieSearchApp ..> java.io.IOException
moviesearchapp.MovieSearchApp ..> java.nio.charset.StandardCharsets
moviesearchapp.MovieSearchApp ..> java.sql.Connection
moviesearchapp.MovieSearchApp ..> java.sql.PreparedStatement
moviesearchapp.MovieSearchApp ..> java.sql.ResultSet
moviesearchapp.MovieSearchApp ..> java.sql.SQLException
moviesearchapp.MovieSearchApp ..> java.util.ArrayList
moviesearchapp.MovieSearchApp ..> java.util.Properties
moviesearchapp.MovieSearchApp - -|> moviesearchapp.JFrame
@enduml

PlantUML version 1.2021.3(Tue Mar 23 00:53:19 AWST 2021)
(GPL source distribution)
Java Runtime: Java(TM) SE Runtime Environment
JVM: Java HotSpot(TM) 64-Bit Server VM
Default Encoding: Cp1252
Language: en
Country: AU
-->
    </g>
</svg>
